# xmcd
#
# Track frame offsets: 
#        150
#        18385
#        30219
#        44236
#        57076
#        71079
#        94692
#        105718
#        128976
#        146554
#        163815
#        181283
#        197557
#        210072
#        228720
#        243186
#        260865
#        280883
#        293191
#
# Disc length: 4100 seconds
#
# Revision: 0
# Processed by: cddbd v1.5.1PL0 Copyright (c) Steve Scherf et al.
# Submitted via: ExactAudioCopy v0.95a3
#
DISCID=19100213
DTITLE=Various Artist - Boston's Most Wanted (Disk 2)
DYEAR=2004
DGENRE=Rap
TTITLE0=Slim Pickens - Redemption
TTITLE1=Throwback - Everyhood
TTITLE2=Shakespear - ColdWar
TTITLE3=Phame - Yalldontwantit
TTITLE4=Shall - What
TTITLE5=The Only - WhatyallWant
TTITLE6=Picasso and 730 - Corrupted lands
TTITLE7=BlackMarket - I miss U
TTITLE8=Venom - Hit'emwitda9
TTITLE9=Deadly Melody - Caliente
TTITLE10=Joker, Franchyze, BoSkillz - Rep the Bean-Joker
TTITLE11=Blezzed Dez - Can We Say
TTITLE12=Slim Pickens - Outta my Life
TTITLE13=BoJack - Pistols on da waistline
TTITLE14=Culprits - 28 aGram
TTITLE15=ServO - Shake it
TTITLE16=FamGang - Get it Poppin
TTITLE17=Joey Benjamins - I think I Can
TTITLE18=SeanDoe - Freestyle
EXTD=
EXTT0=
EXTT1=
EXTT2=
EXTT3=
EXTT4=
EXTT5=
EXTT6=
EXTT7=
EXTT8=
EXTT9=
EXTT10=
EXTT11=
EXTT12=
EXTT13=
EXTT14=
EXTT15=
EXTT16=
EXTT17=
EXTT18=
PLAYORDER=
